<?xml version="1.0" ?><svg viewBox="0 0 512 512" xmlns="http://www.w3.org/2000/svg"><g id="Peach"><path d="M222.61,93.53c10.89,8.47,18.56,21.37,22.78,38.35a107.94,107.94,0,0,1,2.37,12.81c1.3-.81,2.63-1.59,4-2.34l.64-.32,11.46-5.17c-.39-2.31-.87-4.75-1.45-7.28,1,0,2,.06,3,.06A79,79,0,0,0,343.53,40.7l-.68-5.38-5.39-.68a79,79,0,0,0-87.66,64A73.11,73.11,0,0,0,233,80.11a8.5,8.5,0,1,0-10.43,13.42Z"/><path d="M303.31,145.3a94.79,94.79,0,0,0-23.7,3,9.38,9.38,0,0,1-.94.51l-19,8.56a84.65,84.65,0,0,0-23.24,19.39c-15.28,18.11-23.19,41.73-22.26,66.51a100.22,100.22,0,0,0,12.11,44.35,8.49,8.49,0,1,1-14.89,8.18,117.25,117.25,0,0,1-14.21-51.9c-1.08-29,8.24-56.75,26.25-78.1a103.33,103.33,0,0,1,16-15.37,94.78,94.78,0,0,0-30.8-5.14c-56.45,0-102.21,49.59-102.21,110.76,0,94.49,66.94,171.09,149.52,171.09s149.52-76.6,149.52-171.09C405.52,194.89,359.76,145.3,303.31,145.3Z"/></g></svg>