<?xml version="1.0" ?><svg xmlns="http://www.w3.org/2000/svg" id="_레이어_1_사본" data-name="레이어 1 사본" viewBox="0 0 100 100"><defs><style>
      .cls-1 {
        stroke-width: 0px;
      }
    </style></defs><path class="cls-1" d="m46.9926758,34.9072266c-.6313477,0-1.1738281-.4770508-1.2416992-1.1186523-.0087891-.0830078-.9345703-8.0703125-6.9394531-10.6391602-.6347656-.2714844-.9291992-1.0063477-.6577148-1.6411133.2714844-.6342773,1.0058594-.9282227,1.6411133-.6577148,7.3696289,3.152832,8.4023438,12.2895508,8.4423828,12.6772461.0717773.6865234-.4272461,1.3012695-1.1137695,1.3725586-.0439453.0048828-.0874023.0068359-.1308594.0068359Z"/><path class="cls-1" d="m46.6401367,29.3251953c-.4975586,0-.9511719-.2963867-1.1489258-.7583008-.1079102-.2529297-2.6181641-6.2402344.230957-10.0180664,1.7543945-2.3261719,5.0214844-3.206543,9.7094727-2.6147461.2705078.0341797,2.6503906.2319336,3.7041016-2.3256836.2001953-.4863281.6855469-.7944336,1.2089844-.7729492.5253906.0229492.9804688.3720703,1.1386719.8740234.0683594.2177734,1.6425781,5.3823242-1.4160156,9.8110352-2.4033203,3.4799805-6.8964844,5.4326172-13.3554688,5.8027344-.0239258.0014648-.0478516.0019531-.0717773.0019531Zm6.0913086-11.074707c-2.4228516,0-4.1044922.6020508-5.0102539,1.7988281-1.3842773,1.8300781-.7963867,4.9589844-.2319336,6.7128906,5.1484375-.4379883,8.6855469-2.0043945,10.5214844-4.6625977,1.1308594-1.637207,1.4335938-3.440918,1.4394531-4.8842773-1.5224609,1.1518555-3.3193359,1.3369141-4.3427734,1.1977539-.8574219-.1083984-1.6503906-.1625977-2.3759766-.1625977Z"/><path class="cls-1" d="m54.8193359,87.1660156c-.7226562,0-1.4414062-.1376953-2.0751953-.4267578-.5537109-.2529297-1.1005859-.5185547-1.6445312-.7841797-1.5898438-.7744141-3.0917969-1.5058594-4.6152344-1.8164062-13.4975586-1.5761719-24.0595703-12.1259766-25.1240234-25.1035156-.4819336-5.8769531.9433594-11.6118164,4.1225586-16.5849609,4.3999023-6.8813477,12.3291016-10.4985352,20.5698242-9.5136719,10.6298828-3.6860352,17.9287109-.8969727,22.1914062,2.1108398,6.46875,4.5644531,10.4873047,12.9038086,10.4873047,21.7641602,0,9.6230469-5.3583984,18.6777344-13.9833984,23.6298828-1.7871094.9541016-3.8115234,2.6708984-6.2236328,5.2666016-.8710938.9375-2.2978516,1.4580078-3.7050781,1.4580078Zm-11.4301758-51.8881836c-6.4077148,0-12.3461914,3.1162109-15.7998047,8.519043-2.8818359,4.5078125-4.1743164,9.7070312-3.737793,15.0332031.9692383,11.8105469,10.6293945,21.4121094,22.9707031,22.8300781.0336914.0039062.0673828.0097656.1005859.015625,1.8569336.3681641,3.5922852,1.2138672,5.2695312,2.03125.5263672.2558594,1.0546875.5136719,1.5878906.7568359.96875.4414062,2.3857422.109375,2.9121094-.4570312,2.6044922-2.8027344,4.84375-4.6845703,6.8457031-5.7519531,7.9355469-4.5576172,12.6933594-12.5800781,12.6933594-21.4433594,0-8.0610352-3.6132812-15.6176758-9.4287109-19.7216797-4.3828125-3.0932617-9.7382812-4.0874023-15.6650391-2.9467773,6.7919922,2.4716797,11.6044922,8.0317383,12.8710938,15.1293945.2197266,1.2290039.2412109,2.0166016.2421875,2.0488281.0166016.6904297-.5292969,1.2636719-1.21875,1.28125-.6845703-.0087891-1.2626953-.5273438-1.28125-1.2167969,0-.0244141-.0234375-.6645508-.203125-1.6738281-1.2802734-7.1738281-6.7333984-12.5556641-14.2314453-14.0449219-.4135742-.0825195-.8266602-.1513672-1.2387695-.2070312-.0371094-.003418-.0737305-.0083008-.1098633-.0146484-.8647461-.1123047-1.7260742-.1674805-2.5786133-.1674805Z"/><path class="cls-1" d="m43.1303711,76.1083984c-.0976562,0-.1972656-.0117188-.2963867-.0351562-.1391602-.0341797-13.9472656-3.5332031-15.0498047-16.1875-.0600586-.6875.4487305-1.2939453,1.1367188-1.3535156.6821289-.0488281,1.2939453.4482422,1.3535156,1.1367188.9458008,10.8496094,12.6538086,13.8525391,13.1518555,13.9755859.6699219.1640625,1.0800781.8408203.9165039,1.5107422-.1396484.5703125-.6499023.953125-1.2124023.953125Z"/><path class="cls-1" d="m29.3344727,54.4335938c-.0673828,0-.1357422-.0048828-.2045898-.0166016-.6811523-.1123047-1.1425781-.7548828-1.0302734-1.4365234.4477539-2.722168,1.5874023-5.2607422,3.3867188-7.5449219.4267578-.5419922,1.2128906-.6357422,1.7553711-.2084961s.6357422,1.2128906.2084961,1.7553711c-1.5351562,1.9487305-2.5053711,4.1035156-2.8837891,6.4042969-.1005859.6123047-.6308594,1.046875-1.2319336,1.046875Z"/></svg>